<?xml version="1.0" encoding="utf-8"?>
<!-- Generator: Adobe Illustrator 26.3.1, SVG Export Plug-In . SVG Version: 6.00 Build 0)  -->
<svg version="1.1"
	 id="svg8" xmlns:rdf="http://www.w3.org/1999/02/22-rdf-syntax-ns#" xmlns:svg="http://www.w3.org/2000/svg" xmlns:dc="http://purl.org/dc/elements/1.1/" xmlns:cc="http://creativecommons.org/ns#" xmlns:inkscape="http://www.inkscape.org/namespaces/inkscape" xmlns:sodipodi="http://sodipodi.sourceforge.net/DTD/sodipodi-0.dtd"
	 xmlns="http://www.w3.org/2000/svg" xmlns:xlink="http://www.w3.org/1999/xlink" x="0px" y="0px" viewBox="0 0 575.2 331.5"
	 style="enable-background:new 0 0 575.2 331.5;" xml:space="preserve">
<style type="text/css">
	.st0{fill:none;}
	.st1{fill:#D1DEF0;}
	.st2{fill:#EDCA87;}
	.st3{fill:none;stroke:#343434;stroke-width:3.6462;stroke-miterlimit:15.1181;}
	.st4{fill:none;stroke:#343434;stroke-width:5.4693;stroke-miterlimit:15.1181;}
	.st5{fill:none;stroke:#FFFFFF;stroke-width:3.6462;stroke-miterlimit:15.1181;}
	.st6{fill:none;stroke:#FFFFFF;stroke-width:5.4693;stroke-miterlimit:15.1181;}
	.st7{font-family:'Noka-Light';}
	.st8{font-size:72px;}
</style>
<defs>
	<inkscape:path-effect  effect="spiro" id="path-effect12" is_visible="true"></inkscape:path-effect>
</defs>
<sodipodi:namedview  bordercolor="#666666" borderopacity="1.0" fit-margin-bottom="0" fit-margin-left="0" fit-margin-right="0" fit-margin-top="0" id="base" inkscape:current-layer="layer1" inkscape:cx="268.21674" inkscape:cy="119.84221" inkscape:document-units="mm" inkscape:guide-bbox="true" inkscape:pageopacity="0.0" inkscape:pageshadow="2" inkscape:window-height="705" inkscape:window-maximized="1" inkscape:window-width="1366" inkscape:window-x="-8" inkscape:window-y="-8" inkscape:zoom="1" pagecolor="#ffffff" showgrid="false" showguides="true" units="px">
	</sodipodi:namedview>
<path id="path4536" inkscape:connector-curvature="0" class="st0" d="M26.7,320.7l123.1-123.1l78.8,79l139.5-135.7l179.7,179.7
	L26.7,320.7z"/>
<path id="path4540" inkscape:connector-curvature="0" sodipodi:nodetypes="ccccccc" class="st1" d="M113.9,235.3l25.7,24.7
	l20.3-20.3l10.9,12.7l16.5-16.5l-37.5-38.4L113.9,235.3z"/>
<path id="path4538" inkscape:connector-curvature="0" class="st2" d="M314,197.5l21.2,19.8l16.1-16.1l28.7,28.7l39.6-38.6
	l-51.4-50.5L314,197.5z"/>
<path id="path14" inkscape:connector-curvature="0" sodipodi:nodetypes="ccc" class="st3" d="M26.7,320.7l123.1-123.1l99.4,99.4"/>
<path id="path16" inkscape:connector-curvature="0" class="st4" d="M235.3,273.7l132.8-132.8l179.7,179.7"/>
<path id="path4516" inkscape:connector-curvature="0" class="st5" d="M117.1,238.3l22.8,22.8l19.3-19.3l10.8,10.8l11.3-11.3"/>
<path id="path4518" inkscape:connector-curvature="0" class="st6" d="M413.7,196.1l-33.8,33.8l-28.7-28.7l-16.1,16.1l-16.7-16.7"/>
<text transform="matrix(1 0 0 1 89.5264 99.9854)" class="st7 st8">ARCTIC-3D</text>
</svg>
